<?xml version="1.0" encoding="UTF-8"?>
<svg width="87px" height="87px" viewBox="0 0 87 87" version="1.1" xmlns="http://www.w3.org/2000/svg" xmlns:xlink="http://www.w3.org/1999/xlink">
    <!-- Generator: Sketch 63.1 (92452) - https://sketch.com -->
    <title>logo-dark</title>
    <desc>Created with Sketch.</desc>
    <g id="logo-dark" stroke="none" stroke-width="1" fill="none" fill-rule="evenodd">
        <g id="Logo" transform="translate(1.000000, 1.000000)">
            <circle id="Oval" stroke="#262626" cx="42.5" cy="42.5" r="42.5"></circle>
            <g id="hair" transform="translate(12.701149, 33.218391)" fill="#262626" fill-rule="nonzero">
                <path d="M38.0828036,18.3705772 C37.0777136,18.0886882 36.096072,17.729063 35.1466717,17.295015 C32.2870015,15.9645802 30.3958471,14.2365442 29.2947976,12.3606822 C28.1937481,14.2212519 26.3025937,15.9645802 23.4429235,17.295015 C22.494033,17.7342879 21.5123913,18.0990105 20.5067916,18.3858696 C16.9645727,19.4401499 13.1941154,19.4542954 9.64412294,18.4266492 C5.79733133,17.2787031 2.64341079,14.5083658 1.00904048,10.8416417 C0.628515742,10.018021 0.313110945,9.16585457 0.066011994,8.29291604 C-0.152796102,7.65063718 0.190517241,6.95266867 0.832796102,6.73386057 C1.37796852,6.54818591 1.97895802,6.76610195 2.27830585,7.25813343 C4.03692654,9.41435532 5.49989505,10.1483883 6.79464768,10.0311469 C8.0894003,9.91390555 9.51158921,8.88422039 10.8726087,7.56907796 C11.1988456,7.25813343 11.7085907,6.74838831 12.2285307,6.22844828 C13.248021,5.20895802 14.3694603,4.09261619 15.5367766,3.1088081 C19.313988,-0.0821964018 23.0351274,-0.459407796 25.8336282,0.76398051 C27.2598951,1.38153673 28.4663343,2.41568216 29.2947976,3.73069715 C30.1245352,2.4147901 31.3328861,1.38064468 32.7610645,0.76398051 C35.5595652,-0.439017991 39.2807046,-0.0821964018 43.057916,3.1088081 C44.2252324,4.09261619 45.3262819,5.19366567 46.3661619,6.22844828 C46.875907,6.7381934 47.3856522,7.24793853 47.7271814,7.56907796 C49.1034933,8.88422039 50.4594153,9.91390555 51.8051424,10.0311469 C53.1508696,10.1483883 54.5628636,9.41435532 56.3214843,7.25813343 C56.7105472,6.70225637 57.4765667,6.56704648 58.0323163,6.95610945 C58.4625412,7.25724138 58.6538231,7.7985907 58.5082909,8.30311094 C58.2611919,9.17604948 57.9457871,10.0282159 57.5652624,10.8518366 C55.9273238,14.5126987 52.773913,17.276919 48.9301799,18.4215517 C45.3801874,19.4491979 41.6097301,19.4350525 38.0675112,18.3807721" id="Path"></path>
            </g>
        </g>
    </g>
</svg>